<?xml version="1.0" encoding="UTF-8" standalone="no"?>
<svg
   xmlns:dc="http://purl.org/dc/elements/1.1/"
   xmlns:cc="http://creativecommons.org/ns#"
   xmlns:rdf="http://www.w3.org/1999/02/22-rdf-syntax-ns#"
   xmlns:svg="http://www.w3.org/2000/svg"
   xmlns="http://www.w3.org/2000/svg"
   xmlns:sodipodi="http://sodipodi.sourceforge.net/DTD/sodipodi-0.dtd"
   xmlns:inkscape="http://www.inkscape.org/namespaces/inkscape"
   height="158.73999pt"
   version="1.1"
   width="272.12598pt"
   viewBox="0 0 272.12599 158.73999"
   id="svg1028"
   sodipodi:docname="free-software-loves-you-and-your-freedom-white-border.paths.svg"
   inkscape:version="1.0.2 (e86c870879, 2021-01-15)">
  <metadata
     id="metadata1032">
    <rdf:RDF>
      <cc:Work
         rdf:about="">
        <dc:format>image/svg+xml</dc:format>
        <dc:type
           rdf:resource="http://purl.org/dc/dcmitype/StillImage" />
        <dc:title>I love Free Software – Aufkleber (90 mm x 50 mm) </dc:title>
      </cc:Work>
    </rdf:RDF>
  </metadata>
  <sodipodi:namedview
     pagecolor="#ffffff"
     bordercolor="#666666"
     borderopacity="1"
     objecttolerance="10"
     gridtolerance="10"
     guidetolerance="10"
     inkscape:pageopacity="0"
     inkscape:pageshadow="2"
     inkscape:window-width="1920"
     inkscape:window-height="1037"
     id="namedview1030"
     showgrid="false"
     inkscape:snap-page="true"
     showborder="true"
     inkscape:zoom="3.6876303"
     inkscape:cx="181.41732"
     inkscape:cy="105.82666"
     inkscape:window-x="0"
     inkscape:window-y="0"
     inkscape:window-maximized="1"
     inkscape:current-layer="Background"
     inkscape:document-rotation="0"
     inkscape:snap-bbox="true"
     inkscape:snap-object-midpoints="false"
     inkscape:bbox-nodes="true"
     inkscape:bbox-paths="false"
     inkscape:snap-global="true"
     fit-margin-top="0"
     fit-margin-left="0"
     fit-margin-right="0"
     fit-margin-bottom="0"
     inkscape:pagecheckerboard="0"
     inkscape:document-units="pt" />
  <title
     id="title969">I love Free Software – Aufkleber (90 mm x 50 mm) </title>
  <defs
     id="defs974">
    <clipPath
       id="Clip0">
      <path
         d="M 0,272.126 V 0 h 158.74 v 272.126 z"
         id="path971" />
    </clipPath>
  </defs>
  <g
     id="Background"
     inkscape:label="Background"
     inkscape:groupmode="layer"
     transform="translate(65.196944,-48.18906)">
    <g
       transform="rotate(90,79.36999,127.55905)"
       id="Group3"
       style="fill:none;stroke:none"
       clip-path="url(#Clip0)"
       clip-rule="evenodd">
      <path
         id=" rect9388"
         style="fill:#008000;fill-rule:evenodd;stroke:none"
         d="M 0,272.126 V 0 h 158.74 v 272.126 z"
         transform="translate(0,-1.5748e-5)" />
      <path
         transform="translate(32.3533,195.789)"
         id=" path61472-2-7"
         style="fill:#ffffff;fill-rule:nonzero;stroke:none"
         d="m 0,41.9948 h 4.66607 v 4.6661 h 4.66611 v 4.6661 h 4.66602 4.6662 4.666 v -4.6661 h 4.6661 v -4.6661 h 4.6661 v -4.6661 h 4.6662 v -4.666 h 4.666 v -4.6661 h 4.6659 v -4.6661 h -4.6659 v -4.6661 h -4.666 V 13.9983 H 32.6626 V 9.3321 H 27.9965 V 4.6663 H 23.3304 V 0 H 18.6644 13.9982 9.33218 V 4.6663 H 4.66607 V 9.3321 H 0 v 4.6662 4.6661 h 4.66607 v 4.6661 h 4.66611 v 4.6661 H 4.66607 v 4.6661 H 0 v 4.666 z" />
      <path
         transform="translate(47.2848,225.185)"
         id=" path17151"
         style="fill:#008000;fill-rule:nonzero;stroke:none"
         d="M 6.53251,4.66611 H 5.59929 V 5.59932 H 0 V 3.73288 H 5.59929 V 1.86645 H 0 V 0 h 5.59929 v 0.93325 h 0.93322 z" />
      <path
         transform="translate(47.2848,218.653)"
         id=" path17153"
         style="fill:#008000;fill-rule:nonzero;stroke:none"
         d="M 6.53251,4.66611 H 5.59929 V 5.59932 H 4.66607 V 3.73289 H 5.59929 V 1.86645 H 3.73288 V 4.66611 H 2.79965 V 5.59932 H 0.933218 V 4.66611 H 0 V 0.93325 H 0.933218 V 0 H 1.86644 V 1.86645 H 0.933218 V 3.73289 H 2.79965 V 0.93325 H 3.73288 V 0 h 1.86641 v 0.93325 h 0.93322 z" />
      <path
         transform="translate(47.2848,212.12)"
         id=" path17155"
         style="fill:#008000;fill-rule:nonzero;stroke:none"
         d="M 0,0 H 0.933218 V 3.73285 H 2.79965 V 1.86641 H 3.73288 V 3.73285 H 5.59929 V 0 H 6.53251 V 5.59928 H 0 Z" />
      <path
         transform="translate(32.3533,25.0101)"
         id=" path61482-2-2"
         style="fill:#ffffff;fill-rule:nonzero;stroke:none"
         d="m 0,41.9948 h 4.66607 v 4.6661 h 4.66611 v 4.6661 h 4.66602 4.6662 4.666 v -4.6661 h 4.6661 v -4.6661 h 4.6661 v -4.6661 h 4.6662 v -4.666 h 4.666 v -4.6661 h 4.6659 v -4.6661 h -4.6659 v -4.6661 h -4.666 V 13.9983 H 32.6626 V 9.3321 H 27.9965 V 4.6663 H 23.3304 V 0 H 18.6644 13.9982 9.33218 V 4.6663 H 4.66607 V 9.3321 H 0 v 4.6662 4.6661 h 4.66607 v 4.6661 h 4.66611 v 4.6661 H 4.66607 v 4.6661 H 0 v 4.666 z" />
      <path
         transform="translate(47.2848,68.8714)"
         id=" path17158"
         style="fill:#008000;fill-rule:nonzero;stroke:none"
         d="M 0,0 H 0.933218 V 0.93322 H 5.59929 V 0 H 6.53251 V 3.73287 H 5.59929 V 2.79965 H 0.933218 V 3.73287 H 0 Z" />
      <path
         transform="translate(47.2848,61.4057)"
         id=" path17160"
         style="fill:#008000;fill-rule:nonzero;stroke:none"
         d="M 6.53251,6.53252 H 0 V 4.66609 H 0.933218 V 3.73287 H 1.86644 V 2.79965 H 0.933218 V 1.86645 H 0 V 0 H 6.53251 V 1.86645 H 2.79965 v 0.9332 H 3.73288 V 3.73287 H 2.79965 v 0.93322 h 3.73286 z" />
      <path
         transform="translate(47.2848,54.8731)"
         id=" path17162"
         style="fill:#008000;fill-rule:nonzero;stroke:none"
         d="M 6.53251,5.59932 H 0 V 0.93325 H 0.933218 V 0 H 2.79965 V 0.93325 H 3.73288 V 3.73289 H 6.53251 Z M 2.79965,3.73289 V 1.86645 H 0.933218 v 1.86644 z" />
      <path
         transform="translate(47.2848,48.3406)"
         id=" path17164"
         style="fill:#008000;fill-rule:nonzero;stroke:none"
         d="M 6.53251,5.59932 H 0 V 0.93325 H 0.933218 V 0 H 2.79965 v 0.93325 h 0.93323 v 0.9332 H 4.66607 V 0.93325 H 5.59929 V 0 H 6.53251 V 1.86645 H 5.59929 V 2.79967 H 4.66607 V 3.73289 H 6.53251 Z M 2.79965,3.73289 V 1.86645 H 0.933218 v 1.86644 z" />
      <path
         transform="translate(47.2848,41.8081)"
         id=" path17166"
         style="fill:#008000;fill-rule:nonzero;stroke:none"
         d="M 6.53251,4.6661 H 5.59929 V 5.59932 H 0.933218 V 4.6661 H 0 V 0.93325 H 0.933218 V 0 H 5.59929 V 0.93325 H 6.53251 Z M 5.59929,3.73289 V 1.86645 H 0.933218 v 1.86644 z" />
      <path
         transform="translate(47.2848,35.2756)"
         id=" path17168"
         style="fill:#008000;fill-rule:nonzero;stroke:none"
         d="M 6.53251,3.73289 H 5.59929 V 4.6661 H 4.66607 V 5.59932 H 0 V 3.73289 H 4.66607 V 1.86645 H 0 V 0 h 4.66607 v 0.93325 h 0.93322 v 0.9332 h 0.93322 z" />
      <path
         transform="translate(47.2848,28.7431)"
         id=" path17170"
         style="fill:#008000;fill-rule:nonzero;stroke:none"
         d="M 0,0 H 0.933218 V 3.73289 H 2.79965 V 1.86645 H 3.73288 V 3.73289 H 5.59929 V 0 H 6.53251 V 5.59932 H 0 Z" />
      <path
         transform="translate(32.3533,138.863)"
         id=" path61492-3-9"
         style="fill:#ffffff;fill-rule:nonzero;stroke:none"
         d="m 0,41.9948 h 4.66607 v 4.6661 h 4.66611 v 4.6661 h 4.66602 4.6662 4.666 v -4.6661 h 4.6661 v -4.6661 h 4.6661 v -4.6661 h 4.6662 v -4.666 h 4.666 v -4.6661 h 4.6659 v -4.6661 h -4.6659 v -4.6661 h -4.666 V 13.9983 H 32.6626 V 9.3321 H 27.9965 V 4.6663 H 23.3304 V 0 H 18.6644 13.9982 9.33218 V 4.6663 H 4.66607 V 9.3321 H 0 v 4.6662 4.6661 h 4.66607 v 4.6661 h 4.66611 v 4.6661 H 4.66607 v 4.6661 H 0 v 4.666 z" />
      <path
         transform="translate(47.2848,174.791)"
         id=" path17173"
         style="fill:#008000;fill-rule:nonzero;stroke:none"
         d="M 6.53251,4.66611 H 5.59929 V 5.59932 H 4.66607 V 3.73288 H 5.59929 V 1.86645 H 3.73288 V 4.66611 H 2.79965 V 5.59932 H 0.933218 V 4.66611 H 0 V 0.93325 H 0.933218 V 0 H 1.86644 V 1.86645 H 0.933218 V 3.73288 H 2.79965 V 0.93325 H 3.73288 V 0 h 1.86641 v 0.93325 h 0.93322 z" />
      <path
         transform="translate(47.2848,168.259)"
         id=" path17175"
         style="fill:#008000;fill-rule:nonzero;stroke:none"
         d="M 6.53251,3.73289 H 0.933218 V 5.59932 H 0 V 0 H 0.933218 V 1.86645 H 6.53251 Z" />
      <path
         transform="translate(47.2848,161.726)"
         id=" path17177"
         style="fill:#008000;fill-rule:nonzero;stroke:none"
         d="M 6.53251,4.66607 H 5.59929 V 5.59928 H 0 V 3.73285 H 5.59929 V 1.86641 H 0 V 0 h 5.59929 v 0.93321 h 0.93322 z" />
      <path
         transform="translate(47.2848,155.194)"
         id=" path17179"
         style="fill:#008000;fill-rule:nonzero;stroke:none"
         d="M 6.53251,5.59928 H 0 V 1.86641 H 0.933218 V 0.93321 H 1.86644 V 0 h 2.79963 v 0.93321 h 0.93322 v 0.9332 H 6.53251 Z M 5.59929,3.73285 V 2.79963 H 4.66607 V 1.86641 H 1.86644 V 2.79963 H 0.933218 v 0.93322 z" />
      <path
         id=" path17181"
         style="fill:#008000;fill-rule:nonzero;stroke:none"
         d="M 6.53251,3.73289 H 3.73288 V 4.66611 H 2.79965 V 5.59932 H 0 V 3.73289 H 2.79965 V 1.86645 H 0 V 0 h 2.79965 v 0.93325 h 0.93323 v 0.9332 h 2.79963 z"
         transform="translate(47.2848,148.661)" />
      <path
         transform="translate(32.3533,81.9363)"
         id=" path61502-1-0"
         style="fill:#ffffff;fill-rule:nonzero;stroke:none"
         d="m 0,41.9948 h 4.66607 v 4.6661 h 4.66611 v 4.6661 h 4.66602 4.6662 4.666 v -4.6661 h 4.6661 v -4.6661 h 4.6661 v -4.6661 h 4.6662 v -4.666 h 4.666 v -4.6661 h 4.6659 v -4.6661 h -4.6659 v -4.6661 h -4.666 V 13.9983 H 32.6626 V 9.3321 H 27.9965 V 4.6663 H 23.3304 V 0 H 18.6644 13.9982 9.33218 V 4.6663 H 4.66607 V 9.3321 H 0 v 4.6662 4.6661 h 4.66607 v 4.6661 h 4.66611 v 4.6661 H 4.66607 v 4.6661 H 0 v 4.666 z" />
      <path
         transform="translate(47.2848,117.865)"
         id=" path17184"
         style="fill:#008000;fill-rule:nonzero;stroke:none"
         d="M 6.53251,4.66611 H 5.59929 V 5.59932 H 4.66607 V 3.73288 H 5.59929 V 1.86645 H 3.73288 V 4.66611 H 2.79965 V 5.59932 H 0.933218 V 4.66611 H 0 V 0.93325 H 0.933218 V 0 H 1.86644 V 1.86645 H 0.933218 V 3.73288 H 2.79965 V 0.93325 H 3.73288 V 0 h 1.86641 v 0.93325 h 0.93322 z" />
      <path
         transform="translate(47.2848,111.333)"
         id=" path17186"
         style="fill:#008000;fill-rule:nonzero;stroke:none"
         d="M 6.53251,5.59932 H 0 V 3.73289 H 2.79965 V 1.86645 H 0 V 0 H 6.53251 V 1.86645 H 3.73288 v 1.86644 h 2.79963 z" />
      <path
         transform="translate(47.2848,104.8)"
         id=" path17188"
         style="fill:#008000;fill-rule:nonzero;stroke:none"
         d="M 6.53251,5.59928 H 1.86644 V 4.66607 H 0.933218 V 3.73285 H 0 V 1.86641 H 0.933218 V 0.93321 H 1.86644 V 0 H 6.53251 V 1.86641 H 3.73288 V 3.73285 H 6.53251 Z M 2.79965,3.73285 V 1.86641 H 1.86644 v 1.86644 z" />
      <path
         transform="translate(47.2848,98.2677)"
         id=" path17190"
         style="fill:#008000;fill-rule:nonzero;stroke:none"
         d="M 6.53251,5.59928 H 0 V 0.93321 H 0.933218 V 0 H 2.79965 v 0.93321 h 0.93323 v 0.9332 H 4.66607 V 0.93321 H 5.59929 V 0 H 6.53251 V 1.86641 H 5.59929 V 2.79963 H 4.66607 V 3.73285 H 6.53251 Z M 2.79965,3.73285 V 1.86641 H 0.933218 v 1.86644 z" />
      <path
         transform="translate(47.2848,91.7352)"
         id=" path17192"
         style="fill:#008000;fill-rule:nonzero;stroke:none"
         d="M 0,0 H 0.933218 V 3.73289 H 2.79965 V 1.86645 H 3.73288 V 3.73289 H 5.59929 V 0 H 6.53251 V 5.59932 H 0 Z" />
      <g
         id="g1309"
         style="fill:#ffffff">
        <g
           id="g1276"
           style="fill:#ffffff">
          <g
             aria-label="Free"
             transform="rotate(-90)"
             id="text892"
             style="font-size:18px;line-height:100%;font-family:'C64 Pro';-inkscape-font-specification:'C64 Pro, Normal';letter-spacing:-1.5px;word-spacing:0px;baseline-shift:baseline;clip-rule:nonzero;display:inline;overflow:visible;opacity:1;stroke-width:0.9375px;enable-background:accumulate">
            <path
               d="m -231.05618,108.8215 h 4.5 v -6.75 h 4.5 v -2.249997 h -4.5 v -4.5 h 9 v -2.25 h -13.5 z"
               id="path864" />
            <path
               d="m -216.80618,108.8215 h 4.5 v -8.999997 h 4.5 v 2.249997 h 4.5 v -2.249997 h -2.25 v -2.25 h -11.25 z"
               id="path866" />
            <path
               d="m -193.55618,99.821503 v 2.249997 h -4.5 v -2.249997 z m 2.25,-2.25 h -9 v 2.25 h -2.25 v 6.749997 h 2.25 v 2.25 h 9 v -2.25 h -6.75 v -2.25 h 9 v -4.499997 h -2.25 z"
               id="path868" />
            <path
               d="m -179.30618,99.821503 v 2.249997 h -4.5 v -2.249997 z m 2.25,-2.25 h -9 v 2.25 h -2.25 v 6.749997 h 2.25 v 2.25 h 9 v -2.25 h -6.75 v -2.25 h 9 v -4.499997 h -2.25 z"
               id="path870" />
          </g>
          <g
             aria-label="Software"
             transform="rotate(-90)"
             id="text1187"
             style="font-size:18px;line-height:100%;font-family:'C64 Pro';-inkscape-font-specification:'C64 Pro, Normal';letter-spacing:-1.5px;word-spacing:0px;baseline-shift:baseline;clip-rule:nonzero;display:inline;overflow:visible;opacity:1;stroke-width:0.9375px;enable-background:accumulate">
            <path
               d="m -152.0699,108.8215 h 9 v -2.25 h 2.25 v -4.5 h -2.25 v -2.249997 h -6.75 v -4.5 h 4.5 v 2.25 h 4.5 v -2.25 h -2.25 v -2.25 h -9 v 2.25 h -2.25 v 4.5 h 2.25 v 2.249997 h 6.75 v 4.5 h -4.5 v -2.25 h -4.5 v 2.25 h 2.25 z"
               id="path873" />
            <path
               d="m -137.8199,108.8215 h 9 v -2.25 h 2.25 v -6.749997 h -2.25 v -2.25 h -9 v 2.25 h -2.25 v 6.749997 h 2.25 z m 2.25,-2.25 v -6.749997 h 4.5 v 6.749997 z"
               id="path875" />
            <path
               d="m -123.5699,108.8215 h 4.5 v -6.75 h 4.5 v -2.249997 h -4.5 v -2.25 h 4.5 v -2.25 h -6.75 v 2.25 h -2.25 v 2.25 h -2.25 v 2.249997 h 2.25 z"
               id="path877" />
            <path
               d="m -104.8199,95.321503 h -4.5 v 2.25 h -4.5 v 2.25 h 4.5 v 6.749997 h 2.25 v 2.25 h 6.75 v -2.25 h -4.5 v -6.749997 h 4.5 v -2.25 h -4.5 z"
               id="path879" />
            <path
               d="m -97.319901,108.8215 h 4.5 v -2.25 h 2.25 v 2.25 h 4.5 v -4.5 h 2.25 v -6.749997 h -4.5 v 4.499997 h -2.25 v -2.249997 h -2.25 v 2.249997 h -2.25 v -4.499997 h -4.5 v 6.749997 h 2.25 z"
               id="path881" />
            <path
               d="m -80.819901,108.8215 h 11.25 v -8.999997 h -2.25 v -2.25 h -9 v 2.25 h 6.75 v 2.249997 h -6.75 v 2.25 h -2.25 v 2.25 h 2.25 z m 2.25,-2.25 v -2.25 h 4.5 v 2.25 z"
               id="path883" />
            <path
               d="m -68.819901,108.8215 h 4.5 v -8.999997 h 4.5 v 2.249997 h 4.5 v -2.249997 h -2.25 v -2.25 h -11.25 z"
               id="path885" />
            <path
               d="m -45.569901,99.821503 v 2.249997 h -4.5 v -2.249997 z m 2.25,-2.25 h -9 v 2.25 h -2.25 v 6.749997 h 2.25 v 2.25 h 9 v -2.25 h -6.75 v -2.25 h 9 v -4.499997 h -2.25 z"
               id="path887" />
          </g>
          <g
             aria-label=""
             transform="rotate(-90)"
             id="text1191"
             style="font-size:18px;line-height:100%;font-family:'C64 Pro';-inkscape-font-specification:'C64 Pro, Normal';letter-spacing:-1.5px;word-spacing:0px;baseline-shift:baseline;clip-rule:nonzero;display:inline;overflow:visible;opacity:1;stroke-width:0.9375px;enable-background:accumulate">
            <path
               d="m -183.80618,131.85097 h 2.25 v -2.25 h 2.25 v -2.25 h 2.25 v -2.25 h 2.25 v -6.75 h -2.25 v -2.25 h -4.5 v 2.25 h -2.25 v -2.25 h -4.5 v 2.25 h -2.25 v 6.75 h 2.25 v 2.25 h 2.25 v 2.25 h 2.25 z"
               id="path890" />
          </g>
          <g
             aria-label="YOU"
             transform="rotate(-90)"
             id="text1195"
             style="font-size:18px;line-height:100%;font-family:'C64 Pro';-inkscape-font-specification:'C64 Pro, Normal';letter-spacing:0px;word-spacing:0px;baseline-shift:baseline;clip-rule:nonzero;display:inline;overflow:visible;opacity:1;stroke-width:0.9375px;enable-background:accumulate">
            <path
               d="m -149.8199,131.85097 h 4.5 v -6.75 h 2.25 v -2.25 h 2.25 v -6.75 h -4.5 v 6.75 h -4.5 v -6.75 h -4.5 v 6.75 h 2.25 v 2.25 h 2.25 z"
               id="path893" />
            <path
               d="m -136.3199,131.85097 h 9 v -2.25 h 2.25 v -11.25 h -2.25 v -2.25 h -9 v 2.25 h -2.25 v 11.25 h 2.25 z m 2.25,-2.25 v -11.25 h 4.5 v 11.25 z"
               id="path895" />
            <path
               d="m -120.5699,131.85097 h 9 v -2.25 h 2.25 v -13.5 h -4.5 v 13.5 h -4.5 v -13.5 h -4.5 v 13.5 h 2.25 z"
               id="path897" />
          </g>
        </g>
        <g
           aria-label="and your freedom"
           transform="rotate(-90)"
           id="text1187-6"
           style="font-size:8px;line-height:100%;font-family:'C64 Pro Mono';-inkscape-font-specification:'C64 Pro Mono, Normal';letter-spacing:-0.75px;word-spacing:0px;baseline-shift:baseline;clip-rule:nonzero;display:inline;overflow:visible;opacity:1;stroke-width:0.9375px;enable-background:accumulate">
          <path
             d="m -192.93803,147.57446 h 5 v -4 h -1 v -1 h -4 v 1 h 3 v 1 h -3 v 1 h -1 v 1 h 1 z m 1,-1 v -1 h 2 v 1 z"
             id="path900" />
          <path
             d="m -186.68803,147.57446 h 2 v -4 h 2 v 4 h 2 v -4 h -1 v -1 h -5 z"
             id="path902" />
          <path
             d="m -175.43803,146.57446 v -2 h -2 v 2 z m 2,1 h -5 v -1 h -1 v -2 h 1 v -1 h 3 v -2 h 2 z"
             id="path904" />
          <path
             d="m -158.93803,142.57446 h -2 v 3 h -2 v -3 h -2 v 3 h 1 v 1 h 2 v 1 h -3 v 1 h 4 v -1 h 1 v -1 h 1 z"
             id="path906" />
          <path
             d="m -156.68803,147.57446 h 4 v -1 h 1 v -3 h -1 v -1 h -4 v 1 h -1 v 3 h 1 z m 1,-1 v -3 h 2 v 3 z"
             id="path908" />
          <path
             d="m -144.43803,142.57446 h -2 v 4 h -2 v -4 h -2 v 4 h 1 v 1 h 5 z"
             id="path910" />
          <path
             d="m -143.18803,147.57446 h 2 v -4 h 2 v 1 h 2 v -1 h -1 v -1 h -5 z"
             id="path912" />
          <path
             d="m -126.68803,147.57446 h 2 v -3 h 2 v -1 h -2 v -1 h 2 v -1 h -3 v 1 h -1 v 1 h -1 v 1 h 1 z"
             id="path914" />
          <path
             d="m -121.43803,147.57446 h 2 v -4 h 2 v 1 h 2 v -1 h -1 v -1 h -5 z"
             id="path916" />
          <path
             d="m -110.18803,143.57446 v 1 h -2 v -1 z m 1,-1 h -4 v 1 h -1 v 3 h 1 v 1 h 4 v -1 h -3 v -1 h 4 v -2 h -1 z"
             id="path918" />
          <path
             d="m -102.93803,143.57446 v 1 h -2 v -1 z m 1,-1 h -4 v 1 h -1 v 3 h 1 v 1 h 4 v -1 h -3 v -1 h 4 v -2 h -1 z"
             id="path920" />
          <path
             d="m -95.688034,146.57446 v -2 h -2 v 2 z m 2,1 h -5 v -1 h -1 v -2 h 1 v -1 h 3 v -2 h 2 z"
             id="path922" />
          <path
             d="m -91.438034,147.57446 h 4 v -1 h 1 v -3 h -1 v -1 h -4 v 1 h -1 v 3 h 1 z m 1,-1 v -3 h 2 v 3 z"
             id="path924" />
          <path
             d="m -85.188034,147.57446 h 2 v -2 h 1 v 1 h 1 v -1 h 1 v 2 h 2 v -4 h -1 v -1 h -2 v 1 h -2 v -1 h -2 z"
             id="path926" />
        </g>
      </g>
      <rect
         transform="rotate(-90)"
         y="5.4424806"
         x="-266.67734"
         height="147.85504"
         width="261.22873"
         id="rect879"
         style="color:#000000;overflow:visible;opacity:1;fill:none;fill-opacity:1;stroke:#ffffff;stroke-width:2.64;stroke-linecap:butt;stroke-linejoin:miter;stroke-miterlimit:4;stroke-dasharray:none;stroke-dashoffset:0;stroke-opacity:1;paint-order:stroke fill markers" />
    </g>
  </g>
</svg>
